# xmcd CD database file
#
# Track frame offsets:
#	150
#	32041
#	47586
#	64089
#	78065
#	93872
#	108977
#	129098
#
# Disc length: 1893 seconds
#
# Revision: 0
# Processed by: cddbd v1.5PL3 Copyright (c) Steve Scherf et al.
# Submitted via: CDex 1.51
#
DISCID=53076308
DTITLE=Henri Salvador - Salvador Plays The Blues
DYEAR=1900
DGENRE=Jazz
TTITLE0=Salvador Plays The Blues
TTITLE1=Don't Blame Me
TTITLE2=Stompin' At The Savoy
TTITLE3=You Go To My Head
TTITLE4=What Is This Thing Called Love
TTITLE5=What Is This Thing Called Love
TTITLE6=Speak Low
TTITLE7=Speak Low
EXTD=
EXTT0=
EXTT1=
EXTT2=
EXTT3=
EXTT4=
EXTT5=
EXTT6=
EXTT7=
PLAYORDER=
